<svg version="1.1" id="Layer_1" xmlns="http://www.w3.org/2000/svg" xmlns:xlink="http://www.w3.org/1999/xlink" x="0px" y="0px"
	 width="100%" viewBox="0 0 1024 1024" enable-background="new 0 0 1024 1024" xml:space="preserve">
<path fill="#000000" opacity="1.000000" stroke="none" 
	d="
M329.112366,523.886719 
	C338.494904,533.153809 346.756531,542.997375 356.149841,551.761597 
	C362.787628,557.954895 363.386353,567.214600 357.879578,573.140259 
	C352.577179,578.846008 342.648712,579.076782 336.148529,573.327759 
	C332.288818,569.914062 328.840332,566.035034 325.212097,562.360168 
	C313.741455,550.741943 302.299561,539.095032 290.777252,527.528320 
	C288.930084,525.673950 287.053589,523.699890 284.343872,522.907471 
	C282.658722,524.483337 283.397491,526.429749 283.389038,528.134338 
	C283.317871,542.463867 283.416199,556.794434 283.310669,571.123474 
	C283.258789,578.165955 278.542542,583.135376 271.299744,584.220947 
	C265.925354,585.026428 258.897766,581.104797 257.294952,575.880676 
	C256.133514,572.095215 255.793930,568.072327 255.787323,564.060486 
	C255.761261,548.231140 255.712326,532.401794 255.628922,516.572632 
	C255.617737,514.449463 256.016632,512.206299 254.522812,510.334259 
	C249.439011,515.255859 244.251541,520.051453 239.324463,525.101074 
	C231.995956,532.611816 224.921661,540.370361 217.604507,547.892456 
	C212.538239,553.100525 206.160629,553.512207 201.622314,549.217468 
	C197.328003,545.153625 197.604141,538.249817 202.583344,533.164062 
	C226.582153,508.651672 250.691666,484.247620 274.666260,459.711700 
	C280.241608,454.005798 285.431061,447.923553 290.821411,442.035828 
	C294.085846,438.470215 297.524994,435.619324 302.970490,437.487671 
	C310.606659,440.107574 312.812683,447.600922 307.382202,453.629883 
	C302.702728,458.825073 297.756409,463.778992 293.023041,468.926880 
	C291.234894,470.871674 289.641327,473.020691 289.027832,475.772827 
	C290.604156,477.313995 292.541229,476.604614 294.251526,476.609528 
	C316.246002,476.672791 338.240723,476.638489 360.235352,476.664978 
	C370.035553,476.676788 375.310577,481.567047 375.348083,490.562531 
	C375.388245,500.192230 370.101166,505.335876 359.999969,505.366669 
	C345.836884,505.409882 331.673584,505.371643 317.510437,505.407745 
	C315.719116,505.412323 313.856964,505.043671 311.443146,506.327423 
	C317.376678,512.222229 323.117645,517.925659 329.112366,523.886719 
z"/>
<path fill="#000000" opacity="1.000000" stroke="none" 
	d="
M154.007141,482.828186 
	C150.179779,477.084839 149.406235,471.364990 152.699341,465.591522 
	C155.857361,460.054932 161.118591,458.613007 167.174515,458.636353 
	C190.151291,458.724854 213.128616,458.681946 236.105713,458.663757 
	C243.832748,458.657654 247.602982,454.937439 247.626404,447.055115 
	C247.688232,426.242676 247.607956,405.429779 247.665558,384.617310 
	C247.698349,372.773132 258.540527,365.931458 269.137238,371.023834 
	C273.720612,373.226440 276.320007,376.883575 276.328644,382.069214 
	C276.361359,401.716278 276.335754,421.363434 276.346039,441.010559 
	C276.348450,445.629761 274.332703,449.405334 271.227448,452.564056 
	C261.423859,462.536285 251.502411,472.392578 241.658218,482.325073 
	C237.390656,486.630920 232.019180,488.166138 226.238358,488.202087 
	C206.425446,488.325439 186.611435,488.297668 166.797897,488.271790 
	C161.955017,488.265472 157.635590,486.772339 154.007141,482.828186 
z"/>
<path fill="#000000" opacity="1.000000" stroke="none" 
	d="
M435.155151,456.801331 
	C435.326721,460.252014 433.923615,461.429352 430.962708,461.386780 
	C416.011902,461.171906 418.802338,463.065704 418.704987,449.975952 
	C418.532837,426.827728 418.759491,403.676453 418.565002,380.528595 
	C418.526947,376.000549 419.825989,374.417938 424.462616,374.571198 
	C441.082245,375.120728 436.468353,372.099609 443.091553,386.780029 
	C449.384430,400.728363 455.169281,414.905670 461.207703,428.969360 
	C462.048401,430.927368 462.712341,433.018402 464.432220,434.555115 
	C466.123840,433.396240 466.454498,431.522522 467.143890,429.885925 
	C474.247711,413.022308 481.433014,396.191498 488.329376,379.243225 
	C489.758545,375.730896 491.626343,374.266968 495.356079,374.601837 
	C498.330139,374.868896 501.363098,374.859680 504.340637,374.615875 
	C508.395966,374.283813 509.421692,376.122070 509.404541,379.892975 
	C509.288544,405.373566 509.276184,430.855255 509.414642,456.335602 
	C509.436188,460.301514 508.090179,461.542999 504.205017,461.442932 
	C492.078003,461.130707 493.761017,462.744843 493.670837,451.205566 
	C493.575806,439.048676 493.672974,426.890320 493.615906,414.732971 
	C493.607758,412.993256 494.197876,411.059265 492.194366,409.067413 
	C489.542175,415.218719 486.957367,421.081085 484.480286,426.988586 
	C480.298859,436.960510 476.050568,446.908264 472.116180,456.977844 
	C470.708618,460.580414 468.512421,461.644714 464.889557,461.447693 
	C461.224884,461.248352 458.037354,461.719543 456.184845,456.976562 
	C450.377960,442.109253 443.963562,427.479401 437.805389,412.748871 
	C437.049805,410.941589 436.426605,409.078217 435.157623,407.734955 
	C435.157623,423.891663 435.157623,440.107574 435.155151,456.801331 
z"/>
<path fill="#000000" opacity="1.000000" stroke="none" 
	d="
M526.554688,524.960388 
	C532.628296,505.735840 551.674622,498.091858 568.557007,507.787262 
	C570.728760,509.034485 572.416443,510.440643 574.110107,507.050415 
	C574.980774,505.307739 586.884155,504.950928 588.403198,506.283661 
	C589.557861,507.296661 589.319214,508.726471 589.320679,510.020294 
	C589.341919,529.182007 589.590454,548.348755 589.215271,567.503174 
	C589.044495,576.225342 584.415100,583.259644 576.921997,587.514038 
	C564.783997,594.405640 552.076050,594.136719 539.557861,588.278381 
	C533.891113,585.626343 529.979492,580.558472 527.974243,574.421692 
	C529.617920,572.264771 532.276489,572.324463 534.585388,571.640564 
	C536.808289,570.982117 539.066345,570.442505 541.297913,569.853638 
	C549.221191,579.688904 556.684814,582.045715 565.205505,577.418884 
	C571.743164,573.868958 574.930908,566.122559 572.554565,559.124695 
	C569.844421,559.669739 568.236572,562.032166 565.938965,563.231445 
	C549.051941,572.045959 527.348999,559.745789 525.740417,540.229553 
	C525.333374,535.291626 524.913452,530.253174 526.554688,524.960388 
M543.742493,526.322815 
	C543.070251,528.195251 542.186035,530.021362 541.764954,531.948669 
	C540.427673,538.070312 542.730042,543.257568 547.046448,547.245789 
	C551.247314,551.127319 556.406921,552.860413 562.269531,550.850342 
	C569.410828,548.401978 573.724792,542.238708 573.640015,534.430725 
	C573.560974,527.150696 568.978821,520.515808 562.741394,518.649597 
	C555.375366,516.445740 548.886475,518.893799 543.742493,526.322815 
z"/>
<path fill="#000000" opacity="1.000000" stroke="none" 
	d="
M419.646423,543.999878 
	C419.647797,524.842529 419.777100,506.183655 419.559174,487.528870 
	C419.506134,482.986511 420.839508,481.391663 425.464386,481.561462 
	C436.580444,481.969574 447.706696,481.230103 458.773499,483.433044 
	C476.297974,486.921417 492.966278,499.948395 491.432190,528.362915 
	C490.429596,546.933044 476.228363,562.841675 456.376801,566.408813 
	C445.296051,568.399902 434.117889,567.020020 422.988892,567.347046 
	C420.273773,567.426880 419.657623,565.786133 419.665009,563.490051 
	C419.685333,557.160095 419.656219,550.829956 419.646423,543.999878 
M436.347626,521.499939 
	C436.348328,528.157715 436.248627,534.817322 436.371338,541.472839 
	C436.601044,553.932861 433.855896,553.380493 448.030426,552.745544 
	C460.437225,552.189758 469.069336,546.000122 472.972198,534.782227 
	C477.215302,522.586365 473.987457,509.638702 464.828430,502.092896 
	C457.104340,495.729279 447.891479,496.005280 438.712524,496.344849 
	C436.098999,496.441559 436.372375,498.720062 436.364868,500.526642 
	C436.337219,507.184296 436.349396,513.842102 436.347626,521.499939 
z"/>
<path fill="#000000" opacity="1.000000" stroke="none" 
	d="
M185.488937,426.511536 
	C176.004486,417.144470 166.779938,408.017334 157.538818,398.907013 
	C150.134613,391.607605 149.178238,382.406586 155.219635,376.337769 
	C161.956894,369.569885 171.556046,370.086029 179.053696,377.672546 
	C196.126419,394.947479 213.167603,412.253540 230.244858,429.523956 
	C236.647766,435.999268 237.275101,444.986877 231.661224,450.975403 
	C226.111755,456.895325 216.007538,457.033051 209.634018,450.857544 
	C201.511780,442.987793 193.691895,434.806000 185.488937,426.511536 
z"/>
<path fill="#000000" opacity="1.000000" stroke="none" 
	d="
M469.011597,651.828125 
	C466.740356,657.782654 464.526031,663.345703 462.561584,668.995544 
	C461.712189,671.438538 460.297302,672.549805 457.779907,672.370972 
	C457.614380,672.359253 457.446747,672.380859 457.280365,672.376892 
	C440.794403,671.977295 445.123169,675.148865 439.766693,660.313660 
	C432.087769,639.046204 424.741455,617.658630 417.270782,596.316101 
	C416.403229,593.837646 415.648224,591.319763 414.722198,588.452209 
	C419.851654,587.079102 424.618134,587.543823 429.322968,587.885132 
	C431.822540,588.066406 431.906982,590.655457 432.542572,592.438599 
	C438.570526,609.350830 444.534180,626.285889 450.527710,643.210449 
	C451.135254,644.926025 451.817505,646.615173 452.712891,648.967590 
	C455.298248,644.964844 456.354675,640.882568 457.754608,637.003845 
	C463.173950,621.988831 468.497620,606.938599 473.740479,591.861023 
	C474.732330,589.008789 476.073944,587.283325 479.391785,587.609497 
	C483.151489,587.978943 487.006287,587.091370 491.282654,588.457031 
	C484.631531,609.823608 476.529602,630.520996 469.011597,651.828125 
z"/>
<path fill="#000000" opacity="1.000000" stroke="none" 
	d="
M787.268677,618.281555 
	C805.314819,601.163879 833.722107,607.853699 839.749268,630.401733 
	C840.640747,633.736938 840.868591,637.262939 841.248535,640.717712 
	C841.619324,644.089966 840.054382,645.465332 836.586548,645.427917 
	C824.759888,645.300110 812.931030,645.370911 801.102966,645.384155 
	C794.930725,645.391113 794.015747,646.982361 797.043396,652.364197 
	C802.240967,661.603271 814.222229,663.835938 822.731262,656.221924 
	C826.615967,652.745850 829.317078,652.999268 833.027039,655.253296 
	C834.843079,656.356689 837.151428,656.632080 838.855774,658.905823 
	C832.524414,668.991760 822.917297,673.913574 811.434143,674.030762 
	C798.296814,674.164856 786.330750,668.061157 781.151733,654.426514 
	C776.291382,641.630676 777.519531,629.265259 787.268677,618.281555 
M797.706299,628.239868 
	C796.735229,630.070679 795.190735,631.762085 796.197021,634.185669 
	C805.764954,634.185669 815.242981,634.185669 825.156250,634.185669 
	C823.484863,627.401062 819.535522,623.665100 813.464966,622.011169 
	C807.033813,620.259094 802.208435,622.979065 797.706299,628.239868 
z"/>
<path fill="#000000" opacity="1.000000" stroke="none" 
	d="
M545.481567,629.923279 
	C548.399048,648.223572 548.695862,645.271973 534.450623,645.390320 
	C524.962830,645.469177 515.473389,645.338867 505.985504,645.414673 
	C501.271484,645.452393 500.441895,646.910889 502.337006,651.293945 
	C506.463013,660.836609 519.342529,664.548340 527.442322,657.055481 
	C533.308899,651.628418 537.239990,654.093811 542.168945,656.752014 
	C542.881287,657.136169 543.503662,657.686951 544.810181,658.618958 
	C540.293030,665.804382 534.021057,670.245239 526.192566,672.593506 
	C511.015320,677.145935 495.169830,670.707642 488.266754,657.320984 
	C480.718689,642.683411 484.386414,624.627563 497.077087,615.040710 
	C513.796936,602.410095 540.548279,609.060913 545.481567,629.923279 
M515.505249,634.646667 
	C518.487488,634.646667 521.476807,634.771179 524.449585,634.603455 
	C526.477722,634.488953 529.295959,635.681396 530.288208,633.247192 
	C531.211121,630.983093 529.477112,628.820007 527.919678,627.062073 
	C526.938843,625.954895 525.862976,624.858521 524.634155,624.057190 
	C519.450195,620.676575 514.097473,620.583679 508.664398,623.521423 
	C504.471527,625.788513 502.049988,629.127563 501.772369,634.646179 
	C506.301117,634.646179 510.408417,634.646179 515.505249,634.646667 
z"/>
<path fill="#000000" opacity="1.000000" stroke="none" 
	d="
M714.784790,525.703613 
	C714.849060,520.804688 712.832336,517.609009 708.562378,516.108093 
	C703.763428,514.421204 699.459961,515.539551 695.491211,518.656311 
	C693.570679,520.164490 693.371521,523.902039 690.445251,523.638916 
	C686.224609,523.259460 681.860901,522.832947 677.593262,520.367798 
	C679.471741,513.927856 683.825806,509.754700 689.433044,506.939606 
	C697.690613,502.793884 706.402344,502.559753 715.155090,505.241669 
	C724.823853,508.204224 730.237854,515.498657 730.317993,525.674805 
	C730.415039,537.999329 730.244507,550.326538 730.410339,562.649597 
	C730.459045,566.263550 729.460083,568.068237 725.608765,567.454041 
	C721.706238,566.831604 717.368835,568.883118 713.954590,565.016174 
	C712.690186,563.584106 710.856140,565.319458 709.425903,566.017090 
	C702.173889,569.554260 694.700195,569.741516 687.123962,567.426880 
	C679.459290,565.085144 674.827637,558.721680 674.657349,550.642395 
	C674.465881,541.562927 678.085693,535.783508 686.259216,532.909790 
	C693.042603,530.524841 700.145081,529.740601 707.326050,529.600769 
	C710.277100,529.543335 713.461060,529.759583 714.784790,525.703613 
M692.568298,554.896790 
	C698.723877,561.038757 712.829224,555.776917 715.296936,545.580688 
	C716.210388,541.806152 714.584290,539.842651 710.894531,539.482605 
	C706.047485,539.009460 701.293762,539.704407 696.744446,541.340637 
	C690.478455,543.594360 688.903137,548.199951 692.568298,554.896790 
z"/>
<path fill="#000000" opacity="1.000000" stroke="none" 
	d="
M542.267517,443.545898 
	C546.609192,448.457001 551.523193,449.752441 557.329773,447.443817 
	C563.035217,445.175323 566.591858,440.162109 566.631714,433.956299 
	C566.696899,423.795319 566.781311,413.631439 566.595276,403.473572 
	C566.527100,399.747894 567.881348,398.549438 571.521362,398.598297 
	C584.368958,398.770844 582.216614,397.416351 582.315063,408.995880 
	C582.448181,424.653198 582.240601,440.313660 582.411682,455.970215 
	C582.455994,460.022156 581.190125,462.126129 577.035889,461.341339 
	C573.243408,460.624878 568.460449,463.763336 565.802551,457.975220 
	C564.908630,456.028412 562.587341,458.199707 561.093811,459.090210 
	C551.023987,465.094604 537.912598,464.175781 530.500977,456.879639 
	C526.150146,452.596558 523.780457,447.317627 523.705261,441.262451 
	C523.548218,428.604370 523.738342,415.942108 523.600952,403.283569 
	C523.563721,399.851715 524.723999,398.551086 528.213074,398.618103 
	C541.847534,398.880035 539.765869,396.981750 539.910828,409.678314 
	C540.000183,417.506500 539.872803,425.337219 539.974731,433.165100 
	C540.019775,436.623352 539.714722,440.219391 542.267517,443.545898 
z"/>
<path fill="#000000" opacity="1.000000" stroke="none" 
	d="
M735.005676,461.388611 
	C733.528137,461.390015 732.520203,461.305847 731.530945,461.405762 
	C727.792603,461.783234 726.420288,460.627747 726.442505,456.414703 
	C726.502747,444.957855 727.663452,433.451721 725.703979,422.032837 
	C724.459595,414.780853 719.683350,410.827057 712.576050,411.187958 
	C705.289246,411.557983 699.417175,416.599426 699.176758,423.501251 
	C698.823364,433.649384 699.016907,443.816376 698.966553,453.975281 
	C698.929810,461.381531 698.921936,461.412811 691.624939,461.390198 
	C681.527222,461.358887 682.702637,462.157501 682.667480,452.660248 
	C682.607727,436.504150 682.799316,420.345520 682.559326,404.192780 
	C682.492798,399.717957 684.002930,398.058533 688.300476,398.633636 
	C689.118469,398.743103 689.964478,398.627686 690.796570,398.651123 
	C694.483337,398.754944 698.965393,397.303680 699.106018,404.716064 
	C706.379150,398.485046 713.743530,396.854492 721.830872,397.586609 
	C730.564941,398.377258 737.971680,404.128387 740.355103,412.644348 
	C741.609375,417.125763 742.299011,421.720581 742.285950,426.403290 
	C742.259888,435.730560 742.275879,445.057922 742.260498,454.385254 
	C742.249146,461.297913 742.239319,461.297882 735.005676,461.388611 
z"/>
<path fill="#000000" opacity="1.000000" stroke="none" 
	d="
M727.935730,646.000000 
	C727.922424,653.496582 727.828125,660.494324 727.929810,667.489258 
	C727.981506,671.041504 726.688293,672.825684 722.941040,672.414673 
	C721.624146,672.270203 720.269836,672.295715 718.947021,672.409912 
	C715.108521,672.741150 711.853882,672.280151 711.724609,666.927063 
	C708.733032,668.599915 706.244995,670.193115 703.594116,671.440002 
	C689.321045,678.153809 674.388062,671.926758 670.328735,657.600830 
	C669.926819,656.182617 669.690857,654.666870 669.684631,653.195007 
	C669.631714,640.701050 669.778442,628.204651 669.572083,615.713867 
	C669.506470,611.739624 670.899536,610.499878 674.771057,610.590698 
	C687.187988,610.881958 685.182495,609.421570 685.326904,620.783264 
	C685.436890,629.444580 685.291748,638.108826 685.370361,646.770752 
	C685.439758,654.413513 690.765930,659.635498 698.282471,659.612061 
	C705.959717,659.588074 711.601074,654.101624 711.633240,646.515381 
	C711.677063,636.187073 711.759644,625.856506 711.585754,615.530945 
	C711.524292,611.880249 712.737793,610.514709 716.456421,610.602234 
	C729.484314,610.909058 727.745544,608.994690 727.908813,621.511353 
	C728.013123,629.506287 727.933105,637.503723 727.935730,646.000000 
z"/>
<path fill="#000000" opacity="1.000000" stroke="none" 
	d="
M614.249939,639.088806 
	C614.260925,648.900818 614.141602,658.228333 614.339783,667.549072 
	C614.418457,671.249329 613.106201,672.572754 609.431274,672.434448 
	C598.187683,672.011230 597.771667,674.618713 598.334961,661.378052 
	C598.714172,652.464966 599.270630,643.451599 597.826965,634.480164 
	C596.647827,627.152832 591.861145,622.302246 585.012756,622.426208 
	C577.733276,622.558044 571.453735,627.836548 571.197815,634.868958 
	C570.828674,645.012146 571.047119,655.177002 571.026917,665.332581 
	C571.013000,672.372070 571.021606,672.431519 564.233459,672.374695 
	C553.426331,672.284180 554.716858,673.642334 554.671265,662.761292 
	C554.605713,647.109192 554.748718,631.455811 554.592224,615.805054 
	C554.554077,611.983582 555.665283,610.139038 559.682312,610.628113 
	C560.994690,610.787964 562.356873,610.771362 563.673035,610.625610 
	C568.125549,610.132507 571.380615,610.971680 570.289856,617.553467 
	C575.155334,613.458984 579.461365,610.422791 584.986084,609.262390 
	C598.394836,606.446045 610.452881,613.872375 613.104736,627.218750 
	C613.844788,630.943237 614.612732,634.734192 614.249939,639.088806 
z"/>
<path fill="#000000" opacity="1.000000" stroke="none" 
	d="
M761.525208,400.181458 
	C771.437805,396.355347 780.967957,396.010315 790.394104,400.471069 
	C795.304443,402.794800 799.271729,407.415070 800.900391,412.619629 
	C797.648804,414.731293 793.775574,415.093933 790.156372,416.159027 
	C787.996094,416.794739 786.953857,415.295959 785.743286,413.766602 
	C781.984070,409.017517 775.382263,407.824310 770.531433,410.809937 
	C766.465088,413.312714 766.392517,416.745483 770.385376,419.445343 
	C773.069702,421.260437 776.261169,421.697266 779.282837,422.584137 
	C783.584717,423.846741 787.920715,424.999969 792.193970,426.351990 
	C799.442627,428.645447 802.848694,433.931061 803.316040,441.278503 
	C803.813538,449.100098 801.157898,455.524078 793.916077,459.093506 
	C783.394653,464.279419 772.468018,464.866943 761.589294,460.211731 
	C755.689209,457.686951 751.643372,453.220032 749.574829,446.624878 
	C753.801880,444.329010 758.191772,443.600555 762.492859,442.596008 
	C765.005615,442.009186 765.473694,444.028168 766.434692,445.524384 
	C770.300903,451.543396 777.584473,453.317505 783.393677,449.697815 
	C788.116150,446.755280 788.037781,441.709991 783.117554,439.104828 
	C778.798950,436.818237 773.908264,436.383759 769.253601,435.186157 
	C756.975708,432.027069 751.483215,425.716431 751.655640,414.990875 
	C751.765991,408.126770 755.224609,403.426514 761.525208,400.181458 
z"/>
<path fill="#000000" opacity="1.000000" stroke="none" 
	d="
M883.729614,610.904419 
	C889.603943,613.581970 893.685181,617.483337 896.111511,623.483093 
	C892.442261,626.225098 888.056274,626.443115 884.021179,627.569458 
	C882.332336,628.040894 881.935181,626.374084 881.111084,625.383911 
	C877.290649,620.793640 871.584412,619.285889 866.817871,621.505554 
	C864.763123,622.462402 862.892517,623.839233 862.680664,626.132202 
	C862.454956,628.574585 864.488281,629.957764 866.397766,630.994446 
	C869.345825,632.594910 872.668762,633.105408 875.887756,633.922424 
	C879.103821,634.738647 882.287903,635.697388 885.450317,636.705566 
	C894.041809,639.444580 897.984070,644.106201 898.339417,651.824585 
	C898.794250,661.701599 895.210876,667.783142 886.700989,671.175476 
	C876.161743,675.376953 865.675171,675.444458 855.300781,670.477966 
	C851.232910,668.530518 848.422241,665.375671 846.078125,661.631592 
	C844.187927,658.612488 844.705627,656.708984 848.265686,655.854004 
	C850.042114,655.427429 851.891052,655.188782 853.580200,654.536377 
	C857.423340,653.052246 860.053833,653.224609 862.465942,657.473511 
	C865.398926,662.639771 873.184021,663.707275 878.479980,660.585693 
	C880.609924,659.330200 882.279419,657.512512 882.277649,655.076782 
	C882.275879,652.524597 880.276062,651.028076 878.037048,650.013428 
	C873.451782,647.935608 868.499268,647.194824 863.649597,646.111755 
	C848.922058,642.822449 846.247314,633.646667 846.796387,625.068970 
	C847.380920,615.937012 856.144104,609.380676 867.671631,608.683960 
	C873.036377,608.359680 878.301758,608.783936 883.729614,610.904419 
z"/>
<path fill="#000000" opacity="1.000000" stroke="none" 
	d="
M628.852051,596.314331 
	C630.734192,594.033936 641.619995,592.012390 643.735779,593.012573 
	C645.296875,593.750488 645.168579,595.126099 645.191101,596.417725 
	C645.246155,599.578552 645.396362,602.754028 645.170044,605.899292 
	C644.896545,609.700256 646.564941,611.064880 650.159668,610.668945 
	C651.146057,610.560303 652.154785,610.652771 653.153259,610.655640 
	C660.375549,610.676208 660.099548,610.689941 660.439575,617.658875 
	C660.680054,622.587280 659.250549,624.463440 654.043457,624.251465 
	C645.199280,623.891479 645.187256,624.194214 645.201965,633.233704 
	C645.211670,639.224304 645.136353,645.216553 645.251770,651.205078 
	C645.380310,657.872803 647.394531,659.750610 654.030884,659.740417 
	C655.846313,659.737610 657.661743,659.739929 659.603027,659.739929 
	C660.983826,663.331726 660.350952,666.822876 660.163025,670.218750 
	C660.019470,672.813599 657.577637,673.111877 655.658081,673.205811 
	C651.676636,673.400574 647.629883,673.651428 643.696716,673.170410 
	C633.763489,671.955566 628.998779,666.051270 628.718140,654.754639 
	C628.511536,646.439026 628.503418,638.110168 628.724609,629.795715 
	C628.830505,625.814941 627.659546,623.670166 623.424377,624.162231 
	C619.129761,624.661255 618.568176,622.220154 618.601196,618.714722 
	C618.668884,611.526550 618.534546,611.421265 625.236328,610.669434 
	C627.823425,610.379272 628.675720,609.070190 628.694763,606.758423 
	C628.722107,603.430725 628.759399,600.103088 628.852051,596.314331 
z"/>
<path fill="#000000" opacity="1.000000" stroke="none" 
	d="
M666.819092,556.869507 
	C666.703735,557.768066 666.591919,558.259155 666.557312,558.755615 
	C665.917969,567.936035 665.675049,568.163269 656.206055,568.349854 
	C642.079224,568.628235 635.697937,562.371765 635.651428,548.165100 
	C635.624146,539.841858 635.578247,531.518005 635.651978,523.195435 
	C635.678223,520.233032 634.838379,518.072754 631.497192,518.467346 
	C626.328308,519.077942 625.076294,516.493164 625.638000,512.029175 
	C625.881775,510.091248 625.227966,508.048767 626.237427,506.222321 
	C635.571594,504.506042 635.823730,504.498901 635.540833,494.503540 
	C635.398682,489.481628 637.277100,487.529816 642.085144,487.610962 
	C644.881348,487.658203 647.683777,487.336548 650.735291,487.166870 
	C651.910461,491.616760 651.364990,496.119873 651.275696,500.541809 
	C651.195740,504.500427 652.735657,506.057678 656.587097,505.656738 
	C657.904663,505.519592 659.248352,505.627899 660.580078,505.632568 
	C667.226318,505.655853 666.931213,505.722992 667.310059,512.262695 
	C667.622437,517.655518 665.258728,518.636169 660.535583,518.496094 
	C650.542847,518.199890 651.370361,517.682922 651.350220,527.544739 
	C651.338684,533.204590 651.324829,538.864624 651.355225,544.524292 
	C651.397949,552.474243 654.752197,555.427673 662.601685,554.364380 
	C664.585205,554.095703 666.750000,553.090637 666.819092,556.869507 
z"/>
<path fill="#000000" opacity="1.000000" stroke="none" 
	d="
M610.423950,383.169922 
	C610.469910,408.115356 610.454590,432.584900 610.629211,457.053131 
	C610.652954,460.378662 609.575012,461.473907 606.354919,461.423523 
	C592.296631,461.203491 594.794617,462.784027 594.715698,450.333771 
	C594.566772,426.855377 594.819397,403.373657 594.543335,379.897552 
	C594.482239,374.703979 596.169800,373.043701 601.096497,373.584259 
	C604.007751,373.903717 606.982666,373.642670 609.808411,373.642670 
	C610.940063,377.076111 610.191833,379.915253 610.423950,383.169922 
z"/>
<path fill="#000000" opacity="1.000000" stroke="none" 
	d="
M624.598999,400.999847 
	C624.608337,393.005554 624.703308,385.509918 624.585693,378.017639 
	C624.535889,374.843048 625.698792,373.549408 628.948242,373.600830 
	C642.731628,373.818848 640.223877,372.199036 640.301697,384.409485 
	C640.451355,407.890747 640.228333,431.374573 640.423157,454.855133 
	C640.462830,459.635406 639.447754,461.717072 634.121155,461.520630 
	C624.547058,461.167572 624.558838,461.482819 624.573059,451.961639 
	C624.598206,435.141083 624.591797,418.320465 624.598999,400.999847 
z"/>
<path fill="#000000" opacity="1.000000" stroke="none" 
	d="
M757.349976,520.000122 
	C757.349426,534.135132 757.148743,547.774658 757.453735,561.402832 
	C757.564209,566.337708 755.843567,567.667542 751.156067,567.494446 
	C740.625244,567.105408 741.671143,568.501038 741.653076,558.205200 
	C741.611572,534.593384 741.641113,510.981415 741.652466,487.369507 
	C741.655701,480.700043 741.672729,480.642029 748.101807,480.671234 
	C758.676514,480.719269 757.251953,479.671387 757.332764,490.068451 
	C757.409058,499.878448 757.349487,509.689484 757.349976,520.000122 
z"/>
<path fill="#000000" opacity="1.000000" stroke="none" 
	d="
M756.358521,635.781128 
	C756.221191,646.344666 755.969666,656.484985 756.136841,666.618347 
	C756.205688,670.791382 755.198975,672.625488 750.606995,672.476440 
	C737.833618,672.061890 739.787415,673.796448 739.696411,661.609619 
	C739.583435,646.478577 739.819397,631.343872 739.589172,616.215515 
	C739.521851,611.787659 740.988708,610.121033 745.322144,610.624146 
	C748.419434,610.983643 751.618530,610.146606 754.488586,611.191406 
	C756.035522,612.953796 754.533325,615.385071 756.176514,616.866455 
	C757.733093,617.214966 758.234863,616.036865 758.983521,615.186218 
	C761.332397,612.517456 764.160522,610.549011 767.552307,609.406921 
	C774.401611,607.100830 776.327576,608.403076 776.345032,615.389221 
	C776.347961,616.553223 776.231140,617.729614 776.359802,618.878967 
	C776.797363,622.787842 775.532898,624.518066 771.185059,624.472046 
	C763.418823,624.389648 759.177002,627.814392 756.358521,635.781128 
z"/>
<path fill="#000000" opacity="1.000000" stroke="none" 
	d="
M669.349365,450.972900 
	C669.166504,462.732666 670.869568,461.120941 659.127625,461.452881 
	C655.127502,461.565948 653.532288,460.379852 653.576721,456.139862 
	C653.759644,438.696075 653.735901,421.248505 653.587524,403.804047 
	C653.555176,400.001862 654.641541,398.473145 658.654175,398.576508 
	C671.296692,398.902222 669.211914,397.362000 669.319641,409.106903 
	C669.446045,422.896179 669.349121,436.687500 669.349365,450.972900 
z"/>
<path fill="#000000" opacity="1.000000" stroke="none" 
	d="
M601.649902,557.961975 
	C601.649780,542.342773 601.818970,527.216431 601.551758,512.097839 
	C601.466370,507.267487 602.577515,505.269775 607.853821,505.518555 
	C618.796326,506.034607 617.264954,504.535797 617.326782,515.283997 
	C617.414673,530.572998 617.132690,545.867615 617.467773,561.149719 
	C617.581787,566.348694 615.807190,568.144775 610.916199,567.406555 
	C610.753723,567.382080 610.584290,567.405029 610.418091,567.403687 
	C600.732178,567.324524 601.730225,568.205200 601.649902,557.961975 
z"/>
<path fill="#000000" opacity="1.000000" stroke="none" 
	d="
M501.427734,566.560364 
	C500.127014,556.908875 500.813507,547.578430 500.685883,538.260986 
	C500.558075,528.929688 500.774414,519.593384 500.621338,510.262787 
	C500.565002,506.830292 501.738525,505.524567 505.231354,505.590546 
	C518.576050,505.842621 516.185425,504.245697 516.304749,516.210022 
	C516.454346,531.208252 516.170959,546.211853 516.416565,561.207458 
	C516.494324,565.958008 515.079651,568.024780 510.205414,567.430359 
	C507.413727,567.089905 504.540283,567.755798 501.427734,566.560364 
z"/>
<path fill="#000000" opacity="1.000000" stroke="none" 
	d="
M325.352875,408.790100 
	C324.107819,417.928833 318.277557,422.634949 309.043823,422.387482 
	C301.425934,422.183350 295.505951,416.451294 294.710388,408.509155 
	C293.912994,400.548584 299.687317,393.272827 307.960114,391.814117 
	C315.336212,390.513489 322.499634,394.869537 324.793518,401.939117 
	C325.483276,404.065063 325.292999,406.204163 325.352875,408.790100 
z"/>
<path fill="#000000" opacity="1.000000" stroke="none" 
	d="
M659.253540,388.426636 
	C657.360413,388.341217 655.893250,388.256989 654.175781,388.158417 
	C653.220398,384.049011 653.759094,380.089813 653.761658,376.162292 
	C653.761780,375.997406 653.738525,375.782196 653.827698,375.674866 
	C657.237183,371.573090 661.807129,374.410767 665.794617,373.736877 
	C668.271362,373.318298 669.479248,374.755219 669.322205,377.272583 
	C669.301514,377.603241 669.328430,377.937256 669.340576,378.269470 
	C669.716064,388.518921 669.716187,388.518921 659.253540,388.426636 
z"/>
<path fill="#000000" opacity="1.000000" stroke="none" 
	d="
M617.345703,486.076477 
	C617.252991,496.254608 618.331665,495.429840 608.615845,495.351044 
	C606.356140,495.332733 602.963379,496.722992 602.092407,493.619537 
	C601.034729,489.851105 600.120789,484.699799 602.385864,482.098755 
	C605.322021,478.727051 610.758545,480.769501 615.095520,480.910004 
	C617.998840,481.004059 617.092102,483.766235 617.345703,486.076477 
z"/>
<path fill="#000000" opacity="1.000000" stroke="none" 
	d="
M516.336426,487.037048 
	C515.931580,490.023712 517.630554,493.734314 514.825012,494.789520 
	C510.831909,496.291412 506.292450,495.715759 502.013245,494.958984 
	C500.896454,494.761444 500.886749,493.491486 500.714600,492.504822 
	C498.913940,482.183685 500.271942,480.766113 510.522522,480.565002 
	C515.156250,480.474091 516.994446,482.033905 516.336426,487.037048 
z"/>
</svg>